<svg xmlns="http://www.w3.org/2000/svg" viewBox="0 0 100 100"><defs><radialGradient id="a"><stop offset="0" stop-color="#1d2150"/><stop offset="1" stop-color="#1d2150" stop-opacity="0"/></radialGradient><radialGradient id="b"><stop offset="0" stop-color="#2a1846"/><stop offset="1" stop-color="#2a1846" stop-opacity="0"/></radialGradient><clipPath id="rr"><rect width="100" height="100" rx="22.5"/></clipPath></defs><rect width="100" height="100" fill="#0d0f20"/><circle cx="20" cy="10" r="70" fill="url(#a)"/><circle cx="90" cy="95" r="60" fill="url(#b)"/><rect x="76.75" y="22.35" width="6.7" height="6.7" rx="1.6" fill="#ec4899"/><rect x="68.15" y="30.95" width="6.7" height="6.7" rx="1.6" fill="#da4ca5"/><rect x="76.75" y="30.95" width="6.7" height="6.7" rx="1.6" fill="#e24a9f"/><rect x="16.55" y="39.55" width="6.7" height="6.7" rx="1.6" fill="#6366f1"/><rect x="59.55" y="39.55" width="6.7" height="6.7" rx="1.6" fill="#c850b0"/><rect x="68.15" y="39.55" width="6.7" height="6.7" rx="1.6" fill="#d04eab"/><rect x="16.55" y="48.15" width="6.7" height="6.7" rx="1.6" fill="#6665ef"/><rect x="25.15" y="48.15" width="6.7" height="6.7" rx="1.6" fill="#6f63e9"/><rect x="50.95" y="48.15" width="6.7" height="6.7" rx="1.6" fill="#b654bc"/><rect x="59.55" y="48.15" width="6.7" height="6.7" rx="1.6" fill="#be52b6"/><rect x="25.15" y="56.75" width="6.7" height="6.7" rx="1.6" fill="#7861e4"/><rect x="33.75" y="56.75" width="6.7" height="6.7" rx="1.6" fill="#815fde"/><rect x="42.35" y="56.75" width="6.7" height="6.7" rx="1.6" fill="#a458c7"/><rect x="50.95" y="56.75" width="6.7" height="6.7" rx="1.6" fill="#ac56c2"/><rect x="33.75" y="65.35" width="6.7" height="6.7" rx="1.6" fill="#8a5dd8"/><rect x="42.35" y="65.35" width="6.7" height="6.7" rx="1.6" fill="#9a5ace"/><rect x="50.95" y="65.35" width="6.7" height="6.7" rx="1.6" fill="#a258c8"/><rect x="42.35" y="73.95" width="6.7" height="6.7" rx="1.6" fill="#945bd2"/></svg>